:FULLY-SPECIFIED
:FORCE-ALL-JOINTS-BE-3DOF
:DEGREES
372
root 9.34234 17.0489 16.1266 6.24977 4.49529 -3.0509
lfemur -34.9235 5.52622 -17.6501
ltibia 59.4641 -0 0
lfoot -14.9235 11.7904 0.0482223
ltoes -0.931546 0 0
rfemur -13.0244 6.18647 29.1674
rtibia 29.0951 -0 0
rfoot -19.4238 2.45112 0.0229377
rtoes -17.6202 0 0
lowerback -5.63478 0.0852739 0.167886
upperback -0.842672 0.0374856 2.69971
thorax 2.28648 0.0119623 2.70296
lowerneck -20.1836 -6.29668 -12.5628
upperneck 21.6735 -8.17906 12.6846
head 11.4844 -3.25942 5.48249
lclavicle -5.34234e-16 -2.74323e-14 0
lhumerus -46.7136 -18.1745 97.7142
lradius 28.4998 -0 0
lwrist 12.3265 0 0
lhand -14.2275 -21.9161 0.00630848
lfingers 7.12502 -0 0
lthumb 11.9097 7.72366 0.00568615
rclavicle -5.34234e-16 -2.74323e-14 0
rhumerus -33.8883 17.8254 -84.4289
rradius 43.8839 -0 0
rwrist -22.3684 0 0
rhand -30.8984 -24.2586 0.000450414
rfingers 7.12502 -0 0
rthumb -4.18503 -54.1975 0.000442599
373
root 9.35508 17.0409 16.2674 6.26846 4.34432 -3.19866
lfemur -35.6821 5.4557 -17.5357
ltibia 59.4518 -0 0
lfoot -14.9546 11.9195 0.0684356
ltoes -1.02587 0 0
rfemur -12.1234 6.22184 29.3797
rtibia 28.4172 -0 0
rfoot -19.3095 2.56433 0.0365137
rtoes -17.5673 0 0
lowerback -5.67155 0.190104 0.288614
upperback -0.833906 0.168251 2.72188
thorax 2.30913 0.0779829 2.67451
lowerneck -20.1792 -6.31248 -12.571
upperneck 21.6773 -8.20068 12.6886
head 11.4889 -3.26953 5.48206
lclavicle -5.34234e-16 -2.74323e-14 0
lhumerus -47.0689 -17.8458 97.6323
lradius 28.3775 -0 0
lwrist 12.2794 0 0
lhand -14.1609 -21.8678 0.00932987
lfingers 7.12502 -0 0
lthumb 11.9738 7.76678 0.0082271
rclavicle -5.34234e-16 -2.74323e-14 0
rhumerus -33.6549 17.8751 -84.463
rradius 43.9222 -0 0
rwrist -22.3564 0 0
rhand -30.8956 -24.2388 0.000684365
rfingers 7.12502 -0 0
rthumb -4.18228 -54.1777 0.000669972
374
root 9.36782 17.0329 16.4082 6.29064 4.18734 -3.35304
lfemur -36.4022 5.37945 -17.4063
ltibia 59.3237 -0 0
lfoot -14.9547 12.0328 0.0860241
ltoes -1.16159 0 0
rfemur -11.18 6.25729 29.5929
rtibia 27.6737 -0 0
rfoot -19.1564 2.69017 0.0511473
rtoes -17.511 0 0
lowerback -5.71758 0.297689 0.412961
upperback -0.825032 0.302064 2.74617
thorax 2.33769 0.145544 2.64671
lowerneck -20.1712 -6.32777 -12.5817
upperneck 21.6788 -8.22174 12.6953
head 11.492 -3.27941 5.48314
lclavicle -5.34234e-16 -2.74323e-14 0
lhumerus -47.4298 -17.5185 97.5573
lradius 28.265 -0 0
lwrist 12.223 0 0
lhand -14.0723 -21.8198 0.0122221
lfingers 7.12502 -0 0
lthumb 12.0592 7.80789 0.0105431
rclavicle -5.34234e-16 -2.74323e-14 0
rhumerus -33.4256 17.9077 -84.4995
rradius 43.9387 -0 0
rwrist -22.3163 0 0
rhand -30.887 -24.2158 0.000918684
rfingers 7.12502 -0 0
rthumb -4.17396 -54.1549 0.00089624
375
root 9.38056 17.025 16.549 6.31616 4.02485 -3.51338
lfemur -37.0847 5.29802 -17.2629
ltibia 59.0854 -0 0
lfoot -14.9254 12.1308 0.10101
ltoes -1.33634 0 0
rfemur -10.1976 6.29224 29.8065
rtibia 26.8696 -0 0
rfoot -18.9666 2.82765 0.0665607
rtoes -17.4516 0 0
lowerback -5.77228 0.407759 0.540489
upperback -0.816071 0.438562 2.77241
thorax 2.37182 0.214467 2.61957
lowerneck -20.1596 -6.34252 -12.5947
upperneck 21.678 -8.24218 12.7047
head 11.4937 -3.28901 5.48564
lclavicle -5.34234e-16 -2.74323e-14 0
lhumerus -47.7953 -17.1929 97.4886
lradius 28.1618 -0 0
lwrist 12.1575 0 0
lhand -13.9629 -21.7723 0.0149582
lfingers 7.12502 -0 0
lthumb 12.1645 7.847 0.0126216
rclavicle -5.34234e-16 -2.74323e-14 0
rhumerus -33.2007 17.9239 -84.5384
rradius 43.9343 -0 0
rwrist -22.2615 0 0
rhand -30.8729 -24.1898 0.00114836
rfingers 7.12502 -0 0
rthumb -4.16035 -54.1292 0.00111668
376
root 9.3933 17.017 16.6898 6.34486 3.85731 -3.67908
lfemur -37.7304 5.21192 -17.1066
ltibia 58.7426 -0 0
lfoot -14.8683 12.2141 0.113444
ltoes -1.54777 0 0
rfemur -9.18004 6.32611 30.02
rtibia 26.0102 -0 0
rfoot -18.7419 2.97578 0.0824695
rtoes -17.3894 0 0
lowerback -5.83509 0.520042 0.67076
upperback -0.807039 0.577383 2.80044
thorax 2.41115 0.284573 2.59311
lowerneck -20.1448 -6.3567 -12.6098
upperneck 21.675 -8.26193 12.7165
head 11.494 -3.29833 5.48949
lclavicle -5.34234e-16 -2.74323e-14 0
lhumerus -48.1639 -16.8692 97.4256
lradius 28.0674 -0 0
lwrist 12.0832 0 0
lhand -13.8338 -21.7252 0.0175135
lfingers 7.12502 -0 0
lthumb 12.2888 7.88414 0.0144534
rclavicle -5.34234e-16 -2.74323e-14 0
rhumerus -32.9805 17.9246 -84.5796
rradius 43.9098 -0 0
rwrist -22.1928 0 0
rhand -30.8536 -24.1614 0.00136794
rfingers 7.12502 -0 0
rthumb -4.14176 -54.1011 0.00132617
377
root 9.40604 17.009 16.8306 6.37657 3.6852 -3.84951
lfemur -38.3401 5.12164 -16.9384
ltibia 58.3009 -0 0
lfoot -14.7849 12.2832 0.123405
ltoes -1.79353 0 0
rfemur -8.13074 6.35841 30.2329
rtibia 25.1002 -0 0
rfoot -18.4846 3.13358 0.098587
rtoes -17.3247 0 0
lowerback -5.90544 0.634262 0.803341
upperback -0.797956 0.718163 2.83009
thorax 2.45533 0.355681 2.56736
lowerneck -20.127 -6.37026 -12.627
upperneck 21.6702 -8.28096 12.7305
head 11.4931 -3.30733 5.49459
lclavicle -5.34234e-16 -2.74323e-14 0
lhumerus -48.5347 -16.5477 97.3678
lradius 27.9813 -0 0
lwrist 12.0003 0 0
lhand -13.6864 -21.6787 0.0198666
lfingers 7.12502 -0 0
lthumb 12.4308 7.91932 0.0160329
rclavicle -5.34234e-16 -2.74323e-14 0
rhumerus -32.7654 17.9104 -84.6233
rradius 43.8663 -0 0
rwrist -22.1109 0 0
rhand -30.8295 -24.1306 0.00157175
rfingers 7.12502 -0 0
rthumb -4.11847 -54.0707 0.00151937
378
root 9.41878 17.0011 16.9714 6.41112 3.50899 -4.02405
lfemur -38.9145 5.02759 -16.7595
ltibia 57.766 -0 0
lfoot -14.6769 12.3387 0.13099
ltoes -2.07127 0 0
rfemur -7.05333 6.38865 30.4447
rtibia 24.1448 -0 0
rfoot -18.1966 3.30006 0.114629
rtoes -17.2577 0 0
lowerback -5.98275 0.750142 0.937799
upperback -0.788842 0.860539 2.8612
thorax 2.50398 0.427613 2.54233
lowerneck -20.1064 -6.38319 -12.6459
upperneck 21.6636 -8.29919 12.7466
head 11.4911 -3.31599 5.50087
lclavicle -5.34234e-16 -2.74323e-14 0
lhumerus -48.9063 -16.2287 97.3147
lradius 27.9031 -0 0
lwrist 11.9092 0 0
lhand -13.5218 -21.6329 0.0219986
lfingers 7.12502 -0 0
lthumb 12.5893 7.95256 0.0173579
rclavicle -5.34234e-16 -2.74323e-14 0
rhumerus -32.5557 17.882 -84.6693
rradius 43.7887 -0 0
rwrist -22.0165 0 0
rhand -30.8008 -24.098 0.0017541
rfingers 7.12502 -0 0
rthumb -4.09079 -54.0385 0.00169095
379
root 9.43152 16.9931 17.1122 6.44833 3.32917 -4.20206
lfemur -39.4547 4.93017 -16.571
ltibia 57.1435 -0 0
lfoot -14.5457 12.3812 0.136318
ltoes -2.37864 0 0
rfemur -5.95142 6.41642 30.6549
rtibia 23.149 -0 0
rfoot -17.8799 3.47422 0.130319
rtoes -17.1887 0 0
lowerback -6.06647 0.867402 1.0737
upperback -0.77972 1.00415 2.89361
thorax 2.55676 0.500187 2.51803
lowerneck -20.0831 -6.39543 -12.6666
upperneck 21.6553 -8.31658 12.7646
head 11.488 -3.32429 5.50824
lclavicle -5.34234e-16 -2.74323e-14 0
lhumerus -49.2776 -15.9124 97.2659
lradius 27.8322 -0 0
lwrist 11.81 0 0
lhand -13.3413 -21.5877 0.0238937
lfingers 7.12502 -0 0
lthumb 12.7632 7.9839 0.0184287
rclavicle -5.34234e-16 -2.74323e-14 0
rhumerus -32.3515 17.8404 -84.7176
rradius 43.726 -0 0
rwrist -21.9102 0 0
rhand -30.7679 -24.0637 0.0019095
rfingers 7.12502 -0 0
rthumb -4.05899 -54.0048 0.00183577
380
root 9.44426 16.9851 17.253 6.48803 3.1462 -4.38293
lfemur -39.9612 4.82972 -16.374
ltibia 56.4391 -0 0
lfoot -14.3931 12.4111 0.139525
ltoes -2.71327 0 0
rfemur -4.8286 6.44136 30.8628
rtibia 22.1178 -0 0
rfoot -17.5366 3.65508 0.145392
rtoes -17.118 0 0
lowerback -6.15603 0.985757 1.21063
upperback -0.770611 1.14863 2.92714
thorax 2.61331 0.573221 2.49448
lowerneck -20.0575 -6.40697 -12.6888
upperneck 21.6457 -8.33307 12.7843
head 11.4839 -3.3322 5.51662
lclavicle -5.34234e-16 -2.74323e-14 0
lhumerus -49.6475 -15.5991 97.2209
lradius 27.7682 -0 0
lwrist 11.7032 0 0
lhand -13.146 -21.5433 0.025539
lfingers 7.12502 -0 0
lthumb 12.9512 8.01335 0.0192487
rclavicle -5.34234e-16 -2.74323e-14 0
rhumerus -32.1533 17.786 -84.7681
rradius 43.6311 -0 0
rwrist -21.7927 0 0
rhand -30.731 -24.0282 0.00203277
rfingers 7.12502 -0 0
rthumb -4.02338 -53.9699 0.001949
381
root 9.457 16.9771 17.3937 6.53002 2.96055 -4.56602
lfemur -40.435 4.72659 -16.1696
ltibia 55.6584 -0 0
lfoot -14.2206 12.4291 0.140758
ltoes -3.07283 0 0
rfemur -3.6885 6.46314 31.0678
rtibia 21.0563 -0 0
rfoot -17.1688 3.84162 0.159595
rtoes -17.0459 0 0
lowerback -6.25088 1.10492 1.34815
upperback -0.761539 1.29363 2.96164
thorax 2.67327 0.646535 2.47169
lowerneck -20.0297 -6.41776 -12.7124
upperneck 21.6348 -8.34859 12.8054
head 11.4789 -3.33971 5.52592
lclavicle -5.34234e-16 -2.74323e-14 0
lhumerus -50.0147 -15.2891 97.1792
lradius 27.7106 -0 0
lwrist 11.5889 0 0
lhand -12.9371 -21.4997 0.0269245
lfingers 7.12502 -0 0
lthumb 13.1523 8.04093 0.0198237
rclavicle -5.34234e-16 -2.74323e-14 0
rhumerus -31.9613 17.7198 -84.8209
rradius 43.521 -0 0
rwrist -21.6647 0 0
rhand -30.6905 -23.9918 0.00211927
rfingers 7.12502 -0 0
rthumb -3.98425 -53.9341 0.00202633
382
root 9.46974 16.9692 17.5345 6.57412 2.77269 -4.75072
lfemur -40.8768 4.62106 -15.9591
ltibia 54.807 -0 0
lfoot -14.0297 12.4357 0.140175
ltoes -3.45495 0 0
rfemur -2.53473 6.48148 31.2694
rtibia 19.9694 -0 0
rfoot -16.7785 4.03286 0.172698
rtoes -16.9727 0 0
lowerback -6.35047 1.2246 1.48584
upperback -0.752529 1.43876 2.99694
thorax 2.73628 0.719946 2.44969
lowerneck -20 -6.42778 -12.7372
upperneck 21.6228 -8.3631 12.8278
head 11.473 -3.34678 5.53606
lclavicle -5.34234e-16 -2.74323e-14 0
lhumerus -50.3782 -14.9826 97.1404
lradius 27.6588 -0 0
lwrist 11.4675 0 0
lhand -12.716 -21.4571 0.0280434
lfingers 7.12502 -0 0
lthumb 13.3653 8.06667 0.0201618
rclavicle -5.34234e-16 -2.74323e-14 0
rhumerus -31.7758 17.6425 -84.8758
rradius 43.3966 -0 0
rwrist -21.527 0 0
rhand -30.6467 -23.9547 0.00216497
rfingers 7.12502 -0 0
rthumb -3.94189 -53.8977 0.00206404
